<svg width="66" height="44" viewBox="0 0 66 44" fill="none" xmlns="http://www.w3.org/2000/svg">
<path d="M24.0039 26.4258H20.6992V33H17.7344V15.9375H23.7344C25.7031 15.9375 27.2227 16.3789 28.293 17.2617C29.3633 18.1445 29.8984 19.4219 29.8984 21.0938C29.8984 22.2344 29.6211 23.1914 29.0664 23.9648C28.5195 24.7305 27.7539 25.3203 26.7695 25.7344L30.6016 32.8477V33H27.4258L24.0039 26.4258ZM20.6992 24.0469H23.7461C24.7461 24.0469 25.5273 23.7969 26.0898 23.2969C26.6523 22.7891 26.9336 22.0977 26.9336 21.2227C26.9336 20.3086 26.6719 19.6016 26.1484 19.1016C25.6328 18.6016 24.8594 18.3438 23.8281 18.3281H20.6992V24.0469Z" fill="black"/>
<path d="M37.6094 25.6289L35.6758 27.6797V33H32.7109V15.9375H35.6758V23.9414L37.3164 21.9141L42.3086 15.9375H45.8945L39.5547 23.4961L46.2578 33H42.7422L37.6094 25.6289Z" fill="#6C63FF"/>
</svg>
